<mxfile host="app.diagrams.net" agent="Mozilla/5.0 (Windows NT 10.0; Win64; x64) AppleWebKit/537.36 (KHTML, like Gecko) Chrome/131.0.0.0 Safari/537.36" version="26.0.6">
  <diagram name="Page-1" id="G5tXUU7XcHrPACgsvGXj">
    <mxGraphModel dx="992" dy="428" grid="1" gridSize="10" guides="1" tooltips="1" connect="1" arrows="1" fold="1" page="1" pageScale="1" pageWidth="850" pageHeight="1100" math="0" shadow="0">
      <root>
        <mxCell id="0" />
        <mxCell id="1" parent="0" />
        <mxCell id="FDOEPw_e3YOts03_lpH0-1" value="" style="rounded=1;whiteSpace=wrap;html=1;" parent="1" vertex="1">
          <mxGeometry x="10" y="70" width="624" height="200" as="geometry" />
        </mxCell>
        <mxCell id="FDOEPw_e3YOts03_lpH0-2" value="cluster: net4255" style="text;html=1;align=center;verticalAlign=middle;whiteSpace=wrap;rounded=0;" parent="1" vertex="1">
          <mxGeometry x="258.5" y="69" width="130" height="30" as="geometry" />
        </mxCell>
        <mxCell id="FDOEPw_e3YOts03_lpH0-15" value="" style="rounded=1;whiteSpace=wrap;html=1;" parent="1" vertex="1">
          <mxGeometry x="330" y="185.13" width="110" height="53" as="geometry" />
        </mxCell>
        <mxCell id="FDOEPw_e3YOts03_lpH0-16" value="clusterIP svc:&lt;div&gt;mongodb-service&lt;/div&gt;" style="text;html=1;align=center;verticalAlign=middle;whiteSpace=wrap;rounded=0;" parent="1" vertex="1">
          <mxGeometry x="320" y="186.13" width="129" height="30" as="geometry" />
        </mxCell>
        <mxCell id="FDOEPw_e3YOts03_lpH0-30" value="webdb-1&lt;div&gt;&lt;span style=&quot;background-color: transparent;&quot;&gt;app:&amp;nbsp;&lt;/span&gt;&lt;span style=&quot;background-color: transparent;&quot;&gt;webdb&lt;/span&gt;&lt;/div&gt;" style="rounded=1;whiteSpace=wrap;html=1;" parent="1" vertex="1">
          <mxGeometry x="510" y="107.24" width="110" height="62.76" as="geometry" />
        </mxCell>
        <mxCell id="FDOEPw_e3YOts03_lpH0-34" value="10.43.7.73:27017/" style="text;html=1;align=center;verticalAlign=middle;whiteSpace=wrap;rounded=0;" parent="1" vertex="1">
          <mxGeometry x="342" y="209.63" width="84" height="30" as="geometry" />
        </mxCell>
        <mxCell id="qzAa1x-LXKB9x7UK549e-19" value="clusterIP svc:&lt;div&gt;webnodb&lt;/div&gt;" style="text;html=1;align=center;verticalAlign=middle;whiteSpace=wrap;rounded=0;" parent="1" vertex="1">
          <mxGeometry x="119" y="112.37" width="78" height="30" as="geometry" />
        </mxCell>
        <mxCell id="qzAa1x-LXKB9x7UK549e-20" value="" style="rounded=1;whiteSpace=wrap;html=1;" parent="1" vertex="1">
          <mxGeometry x="100" y="112.37" width="104" height="53" as="geometry" />
        </mxCell>
        <mxCell id="qzAa1x-LXKB9x7UK549e-21" value="10.43.133.102/" style="text;html=1;align=center;verticalAlign=middle;whiteSpace=wrap;rounded=0;" parent="1" vertex="1">
          <mxGeometry x="122" y="138.87" width="60" height="30" as="geometry" />
        </mxCell>
        <mxCell id="qzAa1x-LXKB9x7UK549e-22" value="clusterIP svc:&lt;div&gt;webdb-service&lt;/div&gt;" style="text;html=1;align=center;verticalAlign=middle;whiteSpace=wrap;rounded=0;" parent="1" vertex="1">
          <mxGeometry x="104" y="115.37" width="94" height="30" as="geometry" />
        </mxCell>
        <mxCell id="qzAa1x-LXKB9x7UK549e-24" value="&lt;div&gt;&lt;br&gt;&lt;/div&gt;" style="text;html=1;align=center;verticalAlign=middle;whiteSpace=wrap;rounded=0;" parent="1" vertex="1">
          <mxGeometry x="650" y="103.62" width="140" height="70" as="geometry" />
        </mxCell>
        <mxCell id="qzAa1x-LXKB9x7UK549e-27" value="webdb-2&lt;div&gt;&lt;span style=&quot;background-color: transparent;&quot;&gt;app:&amp;nbsp;&lt;/span&gt;&lt;span style=&quot;background-color: transparent;&quot;&gt;webdb&lt;/span&gt;&lt;/div&gt;" style="rounded=1;whiteSpace=wrap;html=1;" parent="1" vertex="1">
          <mxGeometry x="390" y="107.24" width="110" height="62.76" as="geometry" />
        </mxCell>
        <mxCell id="qzAa1x-LXKB9x7UK549e-28" value="webdb-3&lt;div&gt;&lt;span style=&quot;background-color: transparent;&quot;&gt;app:&amp;nbsp;&lt;/span&gt;&lt;span style=&quot;background-color: transparent;&quot;&gt;webdb&lt;/span&gt;&lt;/div&gt;" style="rounded=1;whiteSpace=wrap;html=1;" parent="1" vertex="1">
          <mxGeometry x="270" y="107.24" width="110" height="62.76" as="geometry" />
        </mxCell>
        <mxCell id="qzAa1x-LXKB9x7UK549e-29" value="&lt;div&gt;&lt;span style=&quot;background-color: transparent; color: light-dark(rgb(0, 0, 0), rgb(255, 255, 255));&quot;&gt;Deployment&lt;/span&gt;&lt;/div&gt;&lt;div&gt;&lt;span style=&quot;background-color: transparent;&quot;&gt;name: webdb&lt;/span&gt;&lt;span style=&quot;background-color: transparent;&quot;&gt;&amp;nbsp;:&amp;nbsp;&lt;/span&gt;&lt;/div&gt;&lt;div&gt;&lt;span style=&quot;background-color: transparent;&quot;&gt;app: mongodb&lt;/span&gt;&lt;/div&gt;" style="rounded=1;whiteSpace=wrap;html=1;" parent="1" vertex="1">
          <mxGeometry x="670" y="107.24" width="110" height="62.76" as="geometry" />
        </mxCell>
        <mxCell id="qzAa1x-LXKB9x7UK549e-30" value="&lt;div&gt;&lt;span style=&quot;background-color: transparent; color: light-dark(rgb(0, 0, 0), rgb(255, 255, 255));&quot;&gt;Deployment&lt;/span&gt;&lt;/div&gt;&lt;div&gt;&lt;span style=&quot;background-color: transparent;&quot;&gt;name: webdb&lt;/span&gt;&lt;span style=&quot;background-color: transparent;&quot;&gt;&amp;nbsp;:&amp;nbsp;&lt;/span&gt;&lt;/div&gt;&lt;div&gt;&lt;span style=&quot;background-color: transparent;&quot;&gt;app: mongodb&lt;/span&gt;&lt;/div&gt;" style="rounded=1;whiteSpace=wrap;html=1;" parent="1" vertex="1">
          <mxGeometry x="670" y="179" width="110" height="62.76" as="geometry" />
        </mxCell>
        <mxCell id="qzAa1x-LXKB9x7UK549e-32" value="" style="shape=flexArrow;endArrow=classic;html=1;rounded=0;entryX=1;entryY=0.5;entryDx=0;entryDy=0;exitX=0;exitY=0.5;exitDx=0;exitDy=0;" parent="1" source="qzAa1x-LXKB9x7UK549e-29" target="FDOEPw_e3YOts03_lpH0-30" edge="1">
          <mxGeometry width="50" height="50" relative="1" as="geometry">
            <mxPoint x="710" y="50" as="sourcePoint" />
            <mxPoint x="760" as="targetPoint" />
          </mxGeometry>
        </mxCell>
        <mxCell id="qzAa1x-LXKB9x7UK549e-33" value="&lt;div&gt;&lt;span style=&quot;background-color: transparent;&quot;&gt;mongodb-69app:&amp;nbsp;&lt;/span&gt;&lt;span style=&quot;background-color: transparent;&quot;&gt;webdb&lt;/span&gt;&lt;/div&gt;&lt;div&gt;&lt;span style=&quot;background-color: transparent;&quot;&gt;http://10.42.1.209/&lt;/span&gt;&lt;/div&gt;" style="rounded=1;whiteSpace=wrap;html=1;" parent="1" vertex="1">
          <mxGeometry x="500" y="180" width="120" height="62.76" as="geometry" />
        </mxCell>
        <mxCell id="qzAa1x-LXKB9x7UK549e-34" value="" style="shape=flexArrow;endArrow=classic;html=1;rounded=0;entryX=1;entryY=0.5;entryDx=0;entryDy=0;exitX=0;exitY=0.5;exitDx=0;exitDy=0;" parent="1" source="qzAa1x-LXKB9x7UK549e-30" target="qzAa1x-LXKB9x7UK549e-33" edge="1">
          <mxGeometry width="50" height="50" relative="1" as="geometry">
            <mxPoint x="370" y="250" as="sourcePoint" />
            <mxPoint x="420" y="200" as="targetPoint" />
          </mxGeometry>
        </mxCell>
        <mxCell id="uV3YwjBGnvz-ntcIlOIt-1" value="" style="shape=flexArrow;endArrow=classic;html=1;rounded=0;entryX=0;entryY=0.5;entryDx=0;entryDy=0;exitX=1;exitY=0.5;exitDx=0;exitDy=0;" edge="1" parent="1" source="FDOEPw_e3YOts03_lpH0-15" target="qzAa1x-LXKB9x7UK549e-33">
          <mxGeometry width="50" height="50" relative="1" as="geometry">
            <mxPoint x="400" y="290" as="sourcePoint" />
            <mxPoint x="450" y="240" as="targetPoint" />
          </mxGeometry>
        </mxCell>
        <mxCell id="uV3YwjBGnvz-ntcIlOIt-2" value="" style="shape=flexArrow;endArrow=classic;html=1;rounded=0;entryX=0;entryY=0.5;entryDx=0;entryDy=0;exitX=1;exitY=0.75;exitDx=0;exitDy=0;" edge="1" parent="1" source="qzAa1x-LXKB9x7UK549e-22" target="qzAa1x-LXKB9x7UK549e-28">
          <mxGeometry width="50" height="50" relative="1" as="geometry">
            <mxPoint x="190" y="240" as="sourcePoint" />
            <mxPoint x="240" y="190" as="targetPoint" />
          </mxGeometry>
        </mxCell>
        <mxCell id="uV3YwjBGnvz-ntcIlOIt-3" value="" style="endArrow=classic;html=1;rounded=0;exitX=0.5;exitY=1;exitDx=0;exitDy=0;entryX=0.5;entryY=0;entryDx=0;entryDy=0;" edge="1" parent="1" source="qzAa1x-LXKB9x7UK549e-27" target="FDOEPw_e3YOts03_lpH0-16">
          <mxGeometry width="50" height="50" relative="1" as="geometry">
            <mxPoint x="400" y="290" as="sourcePoint" />
            <mxPoint x="450" y="240" as="targetPoint" />
          </mxGeometry>
        </mxCell>
        <mxCell id="uV3YwjBGnvz-ntcIlOIt-4" value="" style="endArrow=classic;html=1;rounded=0;exitX=0.5;exitY=1;exitDx=0;exitDy=0;entryX=0.5;entryY=0;entryDx=0;entryDy=0;" edge="1" parent="1" source="qzAa1x-LXKB9x7UK549e-28" target="FDOEPw_e3YOts03_lpH0-16">
          <mxGeometry width="50" height="50" relative="1" as="geometry">
            <mxPoint x="340" y="340" as="sourcePoint" />
            <mxPoint x="390" y="290" as="targetPoint" />
          </mxGeometry>
        </mxCell>
        <mxCell id="uV3YwjBGnvz-ntcIlOIt-5" value="" style="endArrow=classic;html=1;rounded=0;exitX=0.5;exitY=1;exitDx=0;exitDy=0;entryX=0.561;entryY=0.016;entryDx=0;entryDy=0;entryPerimeter=0;" edge="1" parent="1" source="FDOEPw_e3YOts03_lpH0-30" target="FDOEPw_e3YOts03_lpH0-16">
          <mxGeometry width="50" height="50" relative="1" as="geometry">
            <mxPoint x="400" y="290" as="sourcePoint" />
            <mxPoint x="450" y="240" as="targetPoint" />
          </mxGeometry>
        </mxCell>
      </root>
    </mxGraphModel>
  </diagram>
</mxfile>
